# Created by Kenney (www.kenney.nl)

mtllib Car.mtl

g mergedBlocks

v 0.4 0.4 1.4
v 0.4 0.4 0.5
v -0.4 0.4 1.4
v -0.4 0.4 0.5
v 0.3 0.7 1.5
v -0.3 0.7 1.5
v 0.3 0.8 1.5
v -0.3 0.8 1.5
v -0.5 0.7 1.5
v -0.5 0.6 1.5
v 0.5 0.7 1.5
v 0.5 0.6 1.5
v -0.5 0.6 0.5
v 0.5 0.6 0.5
v -0.5 0.8 0.5
v -0.5 0.7 0.7
v -0.5 0.7 1.4
v 0.5 0.8 0.5
v 0.5 0.7 0.7
v 0.5 0.7 1.4
v 0.368558 1.325768 -0.07009366
v 0.3561546 1.375382 -0.156918
v -0.4 1.4 -0.2
v -0.3561546 1.375382 -0.156918
v -0.368558 1.325768 -0.07009366
v -0.5 0.6 -1.9
v -0.5 0.6 -0.9
v -0.4 0.4 -1.4
v -0.4 0.4 -0.9
v 0.5 0.8 -1.9
v 0.5 0.6 -1.9
v 0.5 0.8 -0.9
v 0.5 0.6 -0.9
v 0.4 0.4 -1.4
v 0.4 0.4 -0.9
v -0.5 0.8 -1.9
v -0.5 0.8 -0.9
v -0.3 0.8 -1.9
v 0.3 0.8 -1.9
v -0.3 0.9 -1.9
v 0.3 0.9 -1.9
v 0.5 1 0.5
v -0.5 1 0.5
v -0.5 1 -0.9
v 0.5 1 -0.9
v -0.3 0.6392164 -1.013397
v -0.584815 0.6392164 -1.013397
v -0.3 0.7842012 -1.264518
v -0.584815 0.7842012 -1.264518
v -0.35 0.5732459 -1.051486
v -0.35 0.708025 -1.28493
v -0.584815 0.5732459 -1.051486
v -0.584815 0.708025 -1.28493
v -0.35 0.708025 -1.51507
v -0.584815 0.708025 -1.51507
v -0.3 0.7842012 -1.535481
v -0.584815 0.7842012 -1.535481
v -0.3 0.6392164 -1.786602
v -0.584815 0.6392164 -1.786602
v -0.584815 0.5732459 -1.748514
v -0.3 0.5732459 -1.051486
v -0.35 0.5732459 -1.748514
v -0.3 0.5732459 -1.748514
v -0.35 0.6232458 -1.661912
v -0.3 0.6392164 1.286602
v -0.584815 0.6392164 1.286602
v -0.3 0.7842012 1.035481
v -0.584815 0.7842012 1.035481
v -0.35 0.5732459 1.248514
v -0.35 0.708025 1.01507
v -0.584815 0.5732459 1.248514
v -0.584815 0.708025 1.01507
v -0.35 0.708025 0.7849299
v -0.584815 0.708025 0.7849299
v -0.3 0.7842012 0.7645185
v -0.584815 0.7842012 0.7645185
v -0.3 0.6392164 0.5133975
v -0.584815 0.6392164 0.5133975
v -0.584815 0.5732459 0.5514855
v -0.3 0.5732459 1.248514
v -0.35 0.5732459 0.5514855
v -0.3 0.5732459 0.5514855
v -0.35 0.6232458 0.6380881
v 0.3 0.6392164 0.5133974
v 0.584815 0.6392164 0.5133974
v 0.3 0.7842012 0.7645185
v 0.584815 0.7842012 0.7645185
v 0.3500001 0.5732459 0.5514855
v 0.35 0.708025 0.7849298
v 0.584815 0.5732459 0.5514855
v 0.584815 0.708025 0.7849299
v 0.35 0.708025 1.01507
v 0.584815 0.708025 1.01507
v 0.3 0.7842012 1.035481
v 0.584815 0.7842012 1.035481
v 0.3 0.6392164 1.286602
v 0.584815 0.6392164 1.286602
v 0.584815 0.5732459 1.248514
v 0.3 0.5732459 0.5514855
v 0.35 0.5732459 1.248514
v 0.3 0.5732459 1.248514
v 0.35 0.6232458 1.161912
v 0.3 0.6392164 -1.786602
v 0.584815 0.6392164 -1.786602
v 0.3 0.7842012 -1.535481
v 0.584815 0.7842012 -1.535481
v 0.3500001 0.5732459 -1.748514
v 0.35 0.708025 -1.51507
v 0.584815 0.5732459 -1.748514
v 0.584815 0.708025 -1.51507
v 0.35 0.708025 -1.28493
v 0.584815 0.708025 -1.28493
v 0.3 0.7842012 -1.264518
v 0.584815 0.7842012 -1.264518
v 0.3 0.6392164 -1.013397
v 0.584815 0.6392164 -1.013397
v 0.584815 0.5732459 -1.051486
v 0.3 0.5732459 -1.748514
v 0.35 0.5732459 -1.051486
v 0.3 0.5732459 -1.051486
v 0.35 0.6232458 -1.138088
v 0.5 0.8 1.5
v 0.5 0.8 1.4
v -0.5 0.8 1.4
v -0.5 0.8 1.5
v -0.45 1 0.140632
v -0.4300184 1.079926 0.1630921
v -0.45 1 0.4014816
v -0.3621268 1.351493 -0.213631
v -0.3742536 1.302986 -0.2272619
v -0.3742536 1.302986 -0.4
v -0.3621268 1.351493 -0.45
v -0.45 1 -0.4
v -0.45 1 -0.45
v 0.5 1 0.4014816
v 0.4121268 1.351493 -0.213631
v 0.45 1 0.4014816
v 0.3621268 1.351493 -0.213631
v 0.5 1 -0.5
v 0.4121268 1.351493 -0.45
v 0.4 1.4 -0.5
v 0.4 1.4 -0.2
v 0.5 1 -0.45
v -0.5 1 -0.5
v -0.4 1.4 -0.5
v -0.4121268 1.351493 -0.213631
v -0.5 1 0.4014816
v -0.5 1 -0.45
v -0.4121268 1.351493 -0.45
v 0.45 1 -0.45
v 0.3742536 1.302986 -0.4
v 0.3621268 1.351493 -0.45
v 0.3742536 1.302986 -0.2272619
v 0.4300184 1.079926 0.1630921
v 0.45 1 0.140632
v 0.45 1 -0.4
v -0.4401942 1.039223 -1.470582
v -0.5 1 -1.5
v -0.4 1.4 -1.2
v -0.3598058 1.360777 -1.229417
v 0.2773359 1.360777 -1.229417
v 0.3598058 1.360777 -1.229417
v 0.4401942 1.039223 -1.470582
v 0.4 1.4 -1.2
v -0.5 1 -1.438165
v -0.4121268 1.351493 -1.174546
v -0.4121268 1.351493 -0.5
v 0.45 1 -0.5
v 0.45 1 -0.55
v -0.45 1 -0.5
v 0.45 1 -1.376331
v 0.45 1 -1.438165
v -0.45 1 -1.438165
v 0.5 1 -1.438165
v 0.5 1 -1.5
v -0.45 1 -0.55
v -0.45 1 -1.376331
v 0.4121268 1.351493 -0.5
v 0.3621268 1.351493 -0.5
v -0.3621268 1.351493 -0.5
v 0.4121268 1.351493 -1.174546
v 0.3621268 1.351493 -1.174546
v 0.3742536 1.302986 -1.149091
v 0.3742536 1.302986 -0.55
v -0.3621268 1.351493 -1.174546
v -0.3742536 1.302986 -0.55
v -0.3742536 1.302986 -1.149091
v 0.45 0.9 1.5
v -0.45 0.9 1.5
v 0.5 0.85 1.5
v -0.5 0.85 1.5
v 0.4438454 1.024618 0.456918
v -0.4438454 1.024618 0.456918
v -0.5 0.9 -1.9
v 0.5 0.9 -1.9
v -0.5 1 -1.9
v 0.5 1 -1.9

vn 0 -1 0
vn 0 0 1
vn 0 -0.4472136 0.8944272
vn -0.8944272 -0.4472136 0
vn 0.8944272 -0.4472136 0
vn -1 0 0
vn 1 0 0
vn 0 0 -1
vn 0 0.8682431 0.4961389
vn 0 -0.9284768 -0.3713907
vn 0.8944272 -0.4472136 0
vn -0.8944272 -0.4472136 0
vn 0 0.8660254 0.5
vn 0 -0.8660254 -0.5
vn 0 0.8660254 -0.5
vn 0 1 0
vn 0 -0.5 0.8660254
vn 0 -0.5 -0.8660254
vn 0 -0.8660254 0.5
vn 4.371139E-08 0.8660254 -0.5
vn -4.371139E-08 -0.8660254 0.5
vn -4.371139E-08 0.8660254 0.5
vn 1 0 8.742278E-08
vn 7.571035E-08 -0.5 -0.8660254
vn -7.571035E-08 -0.5 0.8660254
vn 4.371139E-08 -0.8660254 -0.5
vn -1 0 -8.742278E-08
vn -0.9701425 0.2425356 0
vn 0 -0.8682431 -0.4961389
vn 0.9701425 0.2425356 0
vn 0 0.6 -0.8
vn 0 -0.6 0.8
vn 0.9701425 0.2425357 0
vn 0 0.9950371 0.09950371
vn -0.7031626 0.7031626 0.1054744
vn 0.7031626 0.7031626 0.1054744
vn 0 -0.8944272 -0.4472136

vt -0.4 -1.4
vt -0.4 -0.5
vt 0.4 -1.4
vt 0.4 -0.5
vt 0.3 0.7
vt -0.3 0.7
vt 0.3 0.8
vt -0.3 0.8
vt -0.5 0.7
vt -0.5 0.6
vt 0.5 0.7
vt 0.5 0.6
vt 0.4 0.4
vt -0.4 0.4
vt 0.5 0.4
vt 1.4 0.4
vt 1.5 0.6
vt -0.5 0.4
vt -1.4 0.4
vt -1.5 0.6
vt 0.5 0.8
vt 0.7 0.7
vt 1.4 0.7
vt 1.5 0.7
vt -0.5 0.8
vt -0.7 0.7
vt -1.4 0.7
vt -1.5 0.7
vt -0.368558 -0.07009366
vt -0.3561546 -0.156918
vt 0.4 -0.2
vt 0.3561546 -0.156918
vt 0.368558 -0.07009366
vt -1.9 0.6
vt -0.9 0.6
vt -0.9 0.4
vt 1.9 0.8
vt 1.9 0.6
vt 0.9 0.8
vt 0.9 0.6
vt -0.5 1.9
vt 0.5 1.9
vt -0.4 1.4
vt 0.4 1.4
vt -0.4 0.9
vt 0.4 0.9
vt -1.9 0.8
vt -0.9 0.8
vt 0.9 0.4
vt 0.3 0.9
vt -0.3 0.9
vt 0.5 1
vt -0.5 1
vt -0.9 1
vt 0.9 1
vt 0.3 -1.013397
vt 0.584815 -1.013397
vt 0.3 -1.264518
vt 0.584815 -1.264518
vt 0.35 1.051486
vt 0.35 1.28493
vt 0.584815 1.051486
vt 0.584815 1.28493
vt 0.35 1.51507
vt 0.584815 1.51507
vt 0.3 -1.535481
vt 0.584815 -1.535481
vt 0.3 -1.786602
vt 0.584815 -1.786602
vt -1.786602 0.6392164
vt -1.535481 0.7842012
vt -1.748514 0.5732459
vt -1.51507 0.708025
vt -1.264518 0.7842012
vt -1.28493 0.708025
vt -1.051486 0.5732459
vt -1.013397 0.6392164
vt -0.3 0.5732459
vt -0.35 0.5732459
vt -0.3 0.6392164
vt -0.584815 0.5732459
vt -0.584815 0.6392164
vt 0.584815 0.5732459
vt 0.35 0.5732459
vt 0.584815 0.6392164
vt 0.3 0.5732459
vt 0.3 0.6392164
vt 0.35 1.661912
vt 0.35 1.748514
vt 0.584815 1.748514
vt 1.786602 0.6392164
vt 1.748514 0.5732459
vt 1.535481 0.7842012
vt 1.051486 0.5732459
vt 1.264518 0.7842012
vt 1.013397 0.6392164
vt -1.661912 0.6232458
vt 0.3 1.051486
vt 0.3 1.748514
vt 0.3 1.286602
vt 0.584815 1.286602
vt 0.3 1.035481
vt 0.584815 1.035481
vt 0.35 -1.248514
vt 0.35 -1.01507
vt 0.584815 -1.248514
vt 0.584815 -1.01507
vt 0.35 -0.7849299
vt 0.584815 -0.7849299
vt 0.3 0.7645185
vt 0.584815 0.7645185
vt 0.3 0.5133975
vt 0.584815 0.5133975
vt 0.5133975 0.6392164
vt 0.7645185 0.7842012
vt 0.5514855 0.5732459
vt 0.7849299 0.708025
vt 1.035481 0.7842012
vt 1.01507 0.708025
vt 1.248514 0.5732459
vt 1.286602 0.6392164
vt 0.35 -0.6380881
vt 0.35 -0.5514855
vt 0.584815 -0.5514855
vt -0.5133975 0.6392164
vt -0.5514855 0.5732459
vt -0.7645185 0.7842012
vt -1.248514 0.5732459
vt -1.035481 0.7842012
vt -1.286602 0.6392164
vt 0.6380881 0.6232458
vt 0.3 -1.248514
vt 0.3 -0.5514855
vt -0.3 0.5133974
vt -0.584815 0.5133974
vt -0.3 0.7645185
vt -0.584815 0.7645185
vt -0.3500001 -0.5514855
vt -0.35 -0.7849298
vt -0.584815 -0.5514855
vt -0.584815 -0.7849299
vt -0.35 -1.01507
vt -0.584815 -1.01507
vt -0.3 1.035481
vt -0.584815 1.035481
vt -0.3 1.286602
vt -0.584815 1.286602
vt -1.01507 0.708025
vt -0.7849299 0.708025
vt -0.5133974 0.6392164
vt -0.3 0.5732459
vt -0.3500001 0.5732459
vt -0.3 0.6392164
vt 0.584815 0.5732459
vt 0.35 0.5732459
vt 0.584815 0.6392164
vt 0.3 0.5732459
vt 0.3 0.6392164
vt -0.35 -1.161912
vt -0.35 -1.248514
vt -0.584815 -1.248514
vt 0.5514855 0.5732459
vt 0.5133974 0.6392164
vt -1.161912 0.6232458
vt -0.5514855 0.5732459
vt -0.7849298 0.708025
vt -0.3 -0.5514855
vt -0.3 -1.248514
vt -0.3 -1.786603
vt -0.584815 -1.786602
vt -0.3 -1.535481
vt -0.584815 -1.535481
vt -0.3500001 1.748514
vt -0.35 1.51507
vt -0.584815 1.748514
vt -0.584815 1.51507
vt -0.35 1.28493
vt -0.584815 1.28493
vt -0.3 -1.264518
vt -0.584815 -1.264518
vt -0.3 -1.013397
vt -0.584815 -1.013397
vt 1.28493 0.708025
vt 1.51507 0.708025
vt -0.35 1.138088
vt -0.35 1.051486
vt -0.584815 1.051486
vt -1.786603 0.6392164
vt 1.138088 0.6232458
vt -0.3 1.748514
vt -0.3 1.051486
vt -1.4 0.8
vt -1.5 0.8
vt 1.4 0.8
vt 1.5 0.8
vt 0.140632 1
vt 0.1630921 1.079926
vt 0.4014816 1
vt -0.213631 1.351493
vt -0.2272619 1.302986
vt -0.4 1.302986
vt -0.45 1.351493
vt -0.4 1
vt -0.45 1
vt -0.5 -0.4014816
vt -0.4121268 0.213631
vt -0.45 -0.4014816
vt -0.3621268 0.213631
vt 0.45 1.351493
vt 0.5 1.4
vt 0.2 1.4
vt 0.213631 1.351493
vt -0.4014816 1
vt 0.45 1
vt 0.3621268 0.213631
vt 0.4121268 0.213631
vt 0.45 -0.4014816
vt 0.5 -0.4014816
vt -0.5 1.4
vt -0.2 1.4
vt 0.4 1.302986
vt 0.2272619 1.302986
vt -0.1630921 1.079926
vt -0.140632 1
vt 0.4 1
vt 0.4401942 1.039223
vt 0.3598058 1.360777
vt -0.2773359 1.360777
vt -0.3598058 1.360777
vt -0.4401942 1.039223
vt -1.5 1
vt -1.2 1.4
vt -1.438165 1
vt -1.174546 1.351493
vt -0.5 1.351493
vt -0.45 0.5
vt -0.45 0.55
vt 0.45 0.5
vt -0.45 1.376331
vt -0.45 1.438165
vt 0.45 1.438165
vt 0.5 1.5
vt -0.5 1.438165
vt -0.5 1.5
vt 0.5 1.438165
vt 0.4121268 1.351493
vt 0.3621268 1.351493
vt -0.3621268 1.351493
vt -0.4121268 1.351493
vt -0.4121268 1.174546
vt -0.3621268 1.174546
vt -0.4121268 0.5
vt -0.3621268 0.5
vt 1.438165 1
vt 1.376331 1
vt 1.174546 1.351493
vt 1.149091 1.302986
vt 0.5 1.351493
vt 0.55 1.302986
vt 0.55 1
vt 0.3621268 0.5
vt 0.3621268 1.174546
vt 0.4121268 0.5
vt 0.4121268 1.174546
vt -0.55 1
vt -0.55 1.302986
vt -1.149091 1.302986
vt -1.376331 1
vt 0.2773359 1.360777
vt -0.5 0.5
vt -0.45 1.5
vt 0.5 0.5
vt 0.45 1.5
vt 0.5 0.85
vt -0.5 0.85
vt 0.45 0.9
vt -0.45 0.9
vt 1.5 0.85
vt -1.5 0.85
vt -0.4 -0.2
vt -0.4438454 0.456918
vt 0.4438454 0.456918
vt -0.4121268 0.45
vt -0.3621268 0.45
vt -0.5 -0.5
vt 0.5 -0.5
vt -0.45 -0.140632
vt -0.45 0.4
vt 0.45 -0.140632
vt 0.45 0.4
vt 0.45 0.45
vt -0.45 0.45
vt -0.5 0.45
vt 0.5 0.45
vt 0.3621268 0.45
vt 0.4121268 0.45
vt -0.4 -1.2
vt 0.4 -1.2
vt 1.5 1
vt 1.2 1.4
vt 0.5 0.9
vt -0.5 0.9
vt -1.9 0.9
vt -1.9 1
vt 1.9 1
vt -0.5 -1.9
vt -0.5 -0.9
vt 0.5 -1.9
vt 0.5 -0.9
vt -0.5 -0.7
vt 0.5 -0.7

usemtl dark

f 3/3/1 2/2/1 1/1/1
f 2/2/1 3/3/1 4/4/1
f 7/7/2 6/6/2 5/5/2
f 6/6/2 7/7/2 8/8/2
f 9/9/2 5/5/2 6/6/2
f 10/10/2 5/5/2 9/9/2
f 10/10/2 11/11/2 5/5/2
f 11/11/2 10/10/2 12/12/2
f 12/12/3 3/14/3 1/13/3
f 3/14/3 12/12/3 10/10/3
f 3/16/4 13/12/4 4/15/4
f 13/12/4 3/16/4 10/17/4
f 14/10/5 1/19/5 2/18/5
f 1/19/5 14/10/5 12/20/5
f 13/12/6 16/22/6 15/21/6
f 16/22/6 13/12/6 10/17/6
f 16/22/6 10/17/6 17/23/6
f 17/23/6 10/17/6 9/24/6
f 19/26/7 14/10/7 18/25/7
f 14/10/7 19/26/7 12/20/7
f 12/20/7 19/26/7 20/27/7
f 12/20/7 20/27/7 11/28/7
f 13/12/8 2/14/8 4/13/8
f 2/14/8 13/12/8 14/10/8
f 14/10/8 13/12/8 15/21/8
f 14/10/8 15/21/8 18/25/8
f 22/30/9 25/33/9 21/29/9
f 25/33/9 22/30/9 24/32/9
f 28/19/4 27/35/4 26/34/4
f 27/35/4 28/19/4 29/36/4
f 32/39/7 31/38/7 30/37/7
f 31/38/7 32/39/7 33/40/7
f 34/43/10 26/42/10 31/41/10
f 26/42/10 34/43/10 28/44/10
f 35/45/1 28/44/1 34/43/1
f 28/44/1 35/45/1 29/46/1
f 27/35/6 36/47/6 26/34/6
f 36/47/6 27/35/6 37/48/6
f 33/40/5 34/16/5 31/38/5
f 34/16/5 33/40/5 35/49/5
f 33/12/2 29/14/2 35/13/2
f 29/14/2 33/12/2 27/10/2
f 27/10/2 33/12/2 32/21/2
f 27/10/2 32/21/2 37/25/2
f 40/50/8 39/8/8 38/7/8
f 39/8/8 40/50/8 41/51/8
f 30/21/8 38/8/8 39/7/8
f 30/21/8 36/25/8 38/8/8
f 31/10/8 36/21/8 30/25/8
f 36/21/8 31/10/8 26/12/8
f 14/12/2 4/14/2 2/13/2
f 4/14/2 14/12/2 13/10/2
f 13/10/2 14/12/2 18/21/2
f 13/10/2 18/21/2 15/25/2
f 14/10/11 35/49/11 33/40/11
f 35/49/11 14/10/11 2/18/11
f 18/25/7 33/40/7 32/39/7
f 33/40/7 18/25/7 14/10/7
f 4/4/1 35/45/1 2/2/1
f 35/45/1 4/4/1 29/46/1
f 27/12/8 35/14/8 29/13/8
f 35/14/8 27/12/8 33/10/8
f 33/10/8 27/12/8 37/21/8
f 33/10/8 37/21/8 32/25/8
f 27/35/6 15/21/6 37/48/6
f 15/21/6 27/35/6 13/12/6
f 4/15/12 27/35/12 29/36/12
f 27/35/12 4/15/12 13/12/12
f 48/58/13 47/57/13 46/56/13
f 47/57/13 48/58/13 49/59/13
f 52/62/14 51/61/14 50/60/14
f 51/61/14 52/62/14 53/63/14
f 53/63/1 54/64/1 51/61/1
f 54/64/1 53/63/1 55/65/1
f 58/68/15 57/67/15 56/66/15
f 57/67/15 58/68/15 59/69/15
f 60/72/6 57/71/6 59/70/6
f 57/71/6 60/72/6 55/73/6
f 57/71/6 55/73/6 49/74/6
f 49/74/6 55/73/6 53/75/6
f 49/74/6 53/75/6 52/76/6
f 49/74/6 52/76/6 47/77/6
f 57/67/16 48/58/16 56/66/16
f 48/58/16 57/67/16 49/59/16
f 46/80/17 50/79/17 61/78/17
f 50/79/17 46/80/17 52/81/17
f 52/81/17 46/80/17 47/82/17
f 59/85/18 62/84/18 60/83/18
f 62/84/18 59/85/18 63/86/18
f 63/86/18 59/85/18 58/87/18
f 55/65/19 64/88/19 54/64/19
f 64/88/19 55/65/19 62/89/19
f 62/89/19 55/65/19 60/90/19
f 56/93/7 63/92/7 58/91/7
f 63/92/7 56/93/7 61/94/7
f 61/94/7 56/93/7 48/95/7
f 61/94/7 48/95/7 46/96/7
f 50/76/6 64/97/6 62/72/6
f 64/97/6 50/76/6 54/73/6
f 54/73/6 50/76/6 51/75/6
f 50/60/1 63/99/1 61/98/1
f 63/99/1 50/60/1 62/89/1
f 67/102/13 66/101/13 65/100/13
f 66/101/13 67/102/13 68/103/13
f 71/106/14 70/105/14 69/104/14
f 70/105/14 71/106/14 72/107/14
f 72/107/1 73/108/1 70/105/1
f 73/108/1 72/107/1 74/109/1
f 77/112/15 76/111/15 75/110/15
f 76/111/15 77/112/15 78/113/15
f 79/116/6 76/115/6 78/114/6
f 76/115/6 79/116/6 74/117/6
f 76/115/6 74/117/6 68/118/6
f 68/118/6 74/117/6 72/119/6
f 68/118/6 72/119/6 71/120/6
f 68/118/6 71/120/6 66/121/6
f 76/111/16 67/102/16 75/110/16
f 67/102/16 76/111/16 68/103/16
f 65/80/17 69/79/17 80/78/17
f 69/79/17 65/80/17 71/81/17
f 71/81/17 65/80/17 66/82/17
f 78/85/18 81/84/18 79/83/18
f 81/84/18 78/85/18 82/86/18
f 82/86/18 78/85/18 77/87/18
f 74/109/19 83/122/19 73/108/19
f 83/122/19 74/109/19 81/123/19
f 81/123/19 74/109/19 79/124/19
f 75/127/7 82/126/7 77/125/7
f 82/126/7 75/127/7 80/128/7
f 80/128/7 75/127/7 67/129/7
f 80/128/7 67/129/7 65/130/7
f 69/120/6 83/131/6 81/116/6
f 83/131/6 69/120/6 73/117/6
f 73/117/6 69/120/6 70/119/6
f 69/104/1 82/133/1 80/132/1
f 82/133/1 69/104/1 81/123/1
f 86/136/20 85/135/20 84/134/20
f 85/135/20 86/136/20 87/137/20
f 90/140/21 89/139/21 88/138/21
f 89/139/21 90/140/21 91/141/21
f 91/141/1 92/142/1 89/139/1
f 92/142/1 91/141/1 93/143/1
f 96/146/22 95/145/22 94/144/22
f 95/145/22 96/146/22 97/147/22
f 98/128/23 95/129/23 97/130/23
f 95/129/23 98/128/23 93/148/23
f 95/129/23 93/148/23 87/127/23
f 87/127/23 93/148/23 91/149/23
f 87/127/23 91/149/23 90/126/23
f 87/127/23 90/126/23 85/150/23
f 95/145/16 86/136/16 94/144/16
f 86/136/16 95/145/16 87/137/16
f 84/153/24 88/152/24 99/151/24
f 88/152/24 84/153/24 90/81/24
f 90/81/24 84/153/24 85/82/24
f 97/156/25 100/155/25 98/154/25
f 100/155/25 97/156/25 101/157/25
f 101/157/25 97/156/25 96/158/25
f 93/143/26 102/159/26 92/142/26
f 102/159/26 93/143/26 100/160/26
f 100/160/26 93/143/26 98/161/26
f 94/118/27 101/120/27 96/121/27
f 101/120/27 94/118/27 99/162/27
f 99/162/27 94/118/27 86/115/27
f 99/162/27 86/115/27 84/163/27
f 88/165/23 102/164/23 100/128/23
f 102/164/23 88/165/23 92/148/23
f 92/148/23 88/165/23 89/166/23
f 88/138/1 101/168/1 99/167/1
f 101/168/1 88/138/1 100/160/1
f 105/171/20 104/170/20 103/169/20
f 104/170/20 105/171/20 106/172/20
f 109/175/21 108/174/21 107/173/21
f 108/174/21 109/175/21 110/176/21
f 110/176/1 111/177/1 108/174/1
f 111/177/1 110/176/1 112/178/1
f 115/181/22 114/180/22 113/179/22
f 114/180/22 115/181/22 116/182/22
f 117/94/23 114/95/23 116/96/23
f 114/95/23 117/94/23 112/183/23
f 114/95/23 112/183/23 106/93/23
f 106/93/23 112/183/23 110/184/23
f 106/93/23 110/184/23 109/92/23
f 106/93/23 109/92/23 104/91/23
f 114/180/16 105/171/16 113/179/16
f 105/171/16 114/180/16 106/172/16
f 103/153/24 107/152/24 118/151/24
f 107/152/24 103/153/24 109/81/24
f 109/81/24 103/153/24 104/82/24
f 116/156/25 119/155/25 117/154/25
f 119/155/25 116/156/25 120/157/25
f 120/157/25 116/156/25 115/158/25
f 112/178/26 121/185/26 111/177/26
f 121/185/26 112/178/26 119/186/26
f 119/186/26 112/178/26 117/187/26
f 113/74/27 120/76/27 115/77/27
f 120/76/27 113/74/27 118/72/27
f 118/72/27 113/74/27 105/71/27
f 118/72/27 105/71/27 103/188/27
f 107/92/23 121/189/23 119/94/23
f 121/189/23 107/92/23 111/183/23
f 111/183/23 107/92/23 108/184/23
f 107/173/1 120/191/1 118/190/1
f 120/191/1 107/173/1 119/186/1

usemtl glass

f 122/21/2 5/5/2 11/11/2
f 5/5/2 122/21/2 7/7/2
f 122/193/7 20/27/7 123/192/7
f 20/27/7 122/193/7 11/28/7
f 9/24/6 124/194/6 17/23/6
f 124/194/6 9/24/6 125/195/6
f 8/8/2 9/9/2 6/6/2
f 9/9/2 8/8/2 125/25/2
f 153/222/30 156/225/30 151/221/30
f 156/225/30 153/222/30 155/224/30
f 155/224/30 153/222/30 154/223/30
f 126/196/28 131/201/28 133/203/28
f 131/201/28 126/196/28 130/200/28
f 130/200/28 126/196/28 127/197/28
f 160/227/31 163/230/31 157/226/31
f 163/230/31 160/227/31 162/229/31
f 162/227/31 160/229/31 161/269/31
f 183/257/33 169/260/33 171/255/33
f 169/260/33 183/257/33 184/259/33
f 176/265/28 187/267/28 177/268/28
f 187/267/28 176/265/28 186/266/28

usemtl metalGreen

f 43/272/34 188/271/34 42/270/34
f 188/271/34 43/272/34 189/273/34
f 190/274/2 7/7/2 122/21/2
f 7/7/2 190/274/2 8/8/2
f 8/8/2 190/274/2 125/25/2
f 125/25/2 190/274/2 191/275/2
f 191/275/2 190/274/2 188/276/2
f 191/275/2 188/276/2 189/277/2
f 16/22/6 43/52/6 15/21/6
f 43/52/6 16/22/6 191/278/6
f 191/278/6 16/22/6 124/194/6
f 124/194/6 16/22/6 17/23/6
f 191/278/6 124/194/6 125/195/6
f 191/242/35 189/273/35 43/272/35
f 190/244/36 42/270/36 188/271/36
f 43/52/8 18/25/8 15/21/8
f 18/25/8 43/52/8 42/53/8
f 190/279/7 18/25/7 42/53/7
f 18/25/7 190/279/7 19/26/7
f 19/26/7 190/279/7 123/192/7
f 123/192/7 190/279/7 122/193/7
f 20/27/7 19/26/7 123/192/7
f 140/246/2 150/214/2 143/52/2
f 150/214/2 140/246/2 152/247/2
f 145/4/16 142/280/16 141/2/16
f 142/280/16 145/4/16 23/31/16
f 128/198/28 127/197/28 126/196/28
f 129/199/28 127/197/28 128/198/28
f 129/199/28 130/200/28 127/197/28
f 129/199/28 131/201/28 130/200/28
f 132/202/28 131/201/28 129/199/28
f 132/202/28 133/203/28 131/201/28
f 133/203/28 132/202/28 134/204/28
f 137/207/29 136/206/29 135/205/29
f 136/206/29 137/207/29 138/208/29
f 141/210/30 140/209/30 139/52/30
f 140/209/30 141/210/30 142/211/30
f 140/209/30 142/211/30 136/212/30
f 136/212/30 142/211/30 135/213/30
f 135/213/30 142/211/30 42/53/30
f 143/214/30 139/52/30 140/209/30
f 144/52/8 141/43/8 139/53/8
f 141/43/8 144/52/8 145/44/8
f 128/217/29 146/216/29 129/215/29
f 146/216/29 128/217/29 147/218/29
f 148/204/28 145/219/28 144/53/28
f 145/219/28 148/204/28 149/202/28
f 145/219/28 149/202/28 23/220/28
f 23/220/28 149/202/28 146/199/28
f 23/220/28 146/199/28 147/198/28
f 23/220/28 147/198/28 43/52/28
f 152/209/30 151/221/30 150/214/30
f 151/221/30 152/209/30 138/212/30
f 151/221/30 138/212/30 153/222/30
f 153/222/30 138/212/30 154/223/30
f 154/223/30 138/212/30 137/213/30
f 137/213/30 155/224/30 154/223/30
f 156/225/30 150/214/30 151/221/30
f 132/248/2 148/53/2 134/204/2
f 148/53/2 132/248/2 149/249/2
f 142/280/9 192/281/9 42/270/9
f 192/281/9 142/280/9 21/29/9
f 21/29/9 142/280/9 22/30/9
f 22/30/9 142/280/9 23/31/9
f 22/30/9 23/31/9 24/32/9
f 24/32/9 23/31/9 25/33/9
f 25/33/9 23/31/9 193/282/9
f 193/282/9 23/31/9 43/272/9
f 192/281/9 43/272/9 42/270/9
f 43/272/9 192/281/9 193/282/9
f 138/208/1 140/283/1 136/206/1
f 140/283/1 138/208/1 152/284/1
f 43/286/1 135/205/1 42/285/1
f 135/205/1 43/286/1 137/207/1
f 137/207/1 43/286/1 155/287/1
f 155/287/1 43/286/1 156/288/1
f 156/288/1 43/286/1 128/217/1
f 156/288/1 128/217/1 126/289/1
f 128/217/1 43/286/1 147/218/1
f 133/290/1 156/288/1 126/289/1
f 134/291/1 156/288/1 133/290/1
f 144/272/1 156/288/1 134/291/1
f 144/272/1 150/292/1 156/288/1
f 139/270/1 150/292/1 144/272/1
f 150/292/1 139/270/1 143/293/1
f 144/272/1 134/291/1 148/294/1
f 146/216/1 132/295/1 129/215/1
f 132/295/1 146/216/1 149/296/1
f 159/298/16 141/2/16 164/297/16
f 141/2/16 159/298/16 145/4/16
f 164/300/33 174/254/33 175/299/33
f 174/254/33 164/300/33 181/256/33
f 181/256/33 164/300/33 141/210/33
f 181/256/33 141/210/33 178/258/33
f 158/52/31 157/226/31 175/53/31
f 157/226/31 158/52/31 159/44/31
f 157/226/31 159/44/31 160/227/31
f 160/227/31 159/44/31 161/228/31
f 161/228/31 159/44/31 162/229/31
f 163/230/31 175/53/31 157/226/31
f 175/53/31 163/230/31 164/43/31
f 164/43/31 163/230/31 162/229/31
f 164/43/31 162/229/31 159/44/31
f 165/233/28 159/232/28 158/231/28
f 159/232/28 165/233/28 166/234/28
f 159/232/28 166/234/28 145/219/28
f 145/219/28 166/234/28 167/235/28
f 170/238/1 169/237/1 168/236/1
f 169/237/1 170/238/1 171/239/1
f 171/239/1 170/238/1 172/240/1
f 173/241/1 172/240/1 170/238/1
f 158/242/1 172/240/1 173/241/1
f 158/242/1 174/243/1 172/240/1
f 174/243/1 158/242/1 175/244/1
f 173/204/1 170/204/1 176/204/1
f 173/204/1 176/204/1 177/204/1
f 158/242/1 173/241/1 165/245/1
f 141/44/2 179/247/2 178/246/2
f 179/247/2 141/44/2 180/248/2
f 180/248/2 141/44/2 167/249/2
f 167/249/2 141/44/2 145/43/2
f 170/204/2 179/247/2 180/248/2
f 179/247/2 170/204/2 168/214/2
f 178/252/1 182/251/1 181/250/1
f 182/251/1 178/252/1 179/253/1
f 181/246/32 172/214/32 174/52/32
f 172/214/32 181/246/32 182/247/32
f 182/256/33 171/255/33 172/254/33
f 171/255/33 182/256/33 183/257/33
f 183/257/33 182/256/33 179/258/33
f 183/257/33 179/258/33 184/259/33
f 184/259/33 179/258/33 169/260/33
f 169/260/33 179/258/33 168/52/33
f 185/248/32 165/53/32 173/204/32
f 165/53/32 185/248/32 166/249/32
f 167/263/1 185/262/1 180/261/1
f 185/262/1 167/263/1 166/264/1
f 170/53/28 186/266/28 176/265/28
f 180/235/28 186/266/28 170/53/28
f 180/235/28 187/267/28 186/266/28
f 185/234/28 187/267/28 180/235/28
f 185/234/28 177/268/28 187/267/28
f 177/268/28 185/234/28 173/233/28
f 45/52/2 37/25/2 32/21/2
f 37/25/2 45/52/2 44/53/2
f 37/48/6 194/303/6 36/47/6
f 194/303/6 37/48/6 196/304/6
f 196/304/6 37/48/6 44/54/6
f 197/52/7 30/21/7 195/301/7
f 30/37/7 197/305/7 45/55/7
f 30/37/7 45/55/7 32/39/7
f 196/308/16 45/307/16 197/306/16
f 45/307/16 196/308/16 44/309/16
f 196/52/8 40/50/8 194/301/8
f 40/50/8 196/52/8 41/51/8
f 41/51/8 196/52/8 195/302/8
f 195/302/8 196/52/8 197/53/8
f 44/309/16 42/270/16 45/307/16
f 42/270/16 44/309/16 43/272/16
f 42/52/2 15/25/2 18/21/2
f 15/25/2 42/52/2 43/53/2
f 15/21/6 44/54/6 37/48/6
f 44/54/6 15/21/6 43/52/6
f 42/53/7 32/39/7 45/55/7
f 32/39/7 42/53/7 18/25/7
f 44/52/8 32/25/8 37/21/8
f 32/25/8 44/52/8 45/53/8

usemtl _defaultMat

f 16/311/37 18/285/37 19/310/37
f 18/285/37 16/311/37 15/286/37
f 21/29/9 193/282/9 192/281/9
f 193/282/9 21/29/9 25/33/9

usemtl lightRed

f 194/301/8 38/7/8 36/21/8
f 38/7/8 194/301/8 40/50/8
f 41/51/8 30/25/8 39/8/8
f 30/25/8 41/51/8 195/302/8

